<mxfile host="app.diagrams.net" agent="Mozilla/5.0 (Windows NT 10.0; Win64; x64) AppleWebKit/537.36 (KHTML, like Gecko) Chrome/133.0.0.0 Safari/537.36" version="26.1.0">
  <diagram name="Seite-1" id="jqPzzhXlSDxmofHxGlc9">
    <mxGraphModel dx="1290" dy="557" grid="1" gridSize="10" guides="1" tooltips="1" connect="1" arrows="1" fold="1" page="1" pageScale="1" pageWidth="827" pageHeight="1169" math="0" shadow="0">
      <root>
        <mxCell id="0" />
        <mxCell id="1" parent="0" />
        <mxCell id="DX-VV8H8YmCb958VjYyq-1" value="Gast" style="rounded=0;whiteSpace=wrap;html=1;" vertex="1" parent="1">
          <mxGeometry x="354" y="430" width="120" height="60" as="geometry" />
        </mxCell>
        <mxCell id="DX-VV8H8YmCb958VjYyq-2" value="Buchung" style="rounded=0;whiteSpace=wrap;html=1;" vertex="1" parent="1">
          <mxGeometry x="160" y="330" width="120" height="60" as="geometry" />
        </mxCell>
        <mxCell id="DX-VV8H8YmCb958VjYyq-3" value="Favoritenliste" style="rounded=0;whiteSpace=wrap;html=1;" vertex="1" parent="1">
          <mxGeometry x="707" y="180" width="120" height="60" as="geometry" />
        </mxCell>
        <mxCell id="DX-VV8H8YmCb958VjYyq-4" value="Standort" style="rounded=0;whiteSpace=wrap;html=1;" vertex="1" parent="1">
          <mxGeometry x="707" y="60" width="120" height="60" as="geometry" />
        </mxCell>
        <mxCell id="DX-VV8H8YmCb958VjYyq-5" value="Zimmer" style="rounded=0;whiteSpace=wrap;html=1;" vertex="1" parent="1">
          <mxGeometry x="320" y="30" width="120" height="60" as="geometry" />
        </mxCell>
        <mxCell id="DX-VV8H8YmCb958VjYyq-89" value="" style="edgeStyle=orthogonalEdgeStyle;rounded=0;orthogonalLoop=1;jettySize=auto;html=1;" edge="1" parent="1" source="DX-VV8H8YmCb958VjYyq-6" target="DX-VV8H8YmCb958VjYyq-85">
          <mxGeometry relative="1" as="geometry" />
        </mxCell>
        <mxCell id="DX-VV8H8YmCb958VjYyq-6" value="Zahlung" style="rounded=0;whiteSpace=wrap;html=1;" vertex="1" parent="1">
          <mxGeometry x="40" y="420" width="120" height="60" as="geometry" />
        </mxCell>
        <mxCell id="DX-VV8H8YmCb958VjYyq-7" value="Sonderangebot" style="rounded=0;whiteSpace=wrap;html=1;" vertex="1" parent="1">
          <mxGeometry x="550" y="40" width="120" height="60" as="geometry" />
        </mxCell>
        <mxCell id="DX-VV8H8YmCb958VjYyq-8" value="Hotel" style="rounded=0;whiteSpace=wrap;html=1;" vertex="1" parent="1">
          <mxGeometry x="360" y="180" width="120" height="60" as="geometry" />
        </mxCell>
        <mxCell id="DX-VV8H8YmCb958VjYyq-9" value="Hotel-Manager" style="rounded=0;whiteSpace=wrap;html=1;" vertex="1" parent="1">
          <mxGeometry x="120" y="180" width="120" height="60" as="geometry" />
        </mxCell>
        <mxCell id="DX-VV8H8YmCb958VjYyq-10" value="Bewertung" style="rounded=0;whiteSpace=wrap;html=1;" vertex="1" parent="1">
          <mxGeometry x="560" y="280" width="120" height="60" as="geometry" />
        </mxCell>
        <mxCell id="DX-VV8H8YmCb958VjYyq-11" value="Support" style="rounded=0;whiteSpace=wrap;html=1;" vertex="1" parent="1">
          <mxGeometry x="160" y="510" width="120" height="60" as="geometry" />
        </mxCell>
        <mxCell id="DX-VV8H8YmCb958VjYyq-12" value="Stornierungsrichtlinie" style="rounded=0;whiteSpace=wrap;html=1;" vertex="1" parent="1">
          <mxGeometry x="130" y="40" width="120" height="60" as="geometry" />
        </mxCell>
        <mxCell id="DX-VV8H8YmCb958VjYyq-35" value="" style="edgeStyle=orthogonalEdgeStyle;rounded=0;orthogonalLoop=1;jettySize=auto;html=1;" edge="1" parent="1" source="DX-VV8H8YmCb958VjYyq-13" target="DX-VV8H8YmCb958VjYyq-5">
          <mxGeometry relative="1" as="geometry" />
        </mxCell>
        <mxCell id="DX-VV8H8YmCb958VjYyq-36" value="" style="edgeStyle=orthogonalEdgeStyle;rounded=0;orthogonalLoop=1;jettySize=auto;html=1;" edge="1" parent="1" source="DX-VV8H8YmCb958VjYyq-13" target="DX-VV8H8YmCb958VjYyq-8">
          <mxGeometry relative="1" as="geometry" />
        </mxCell>
        <mxCell id="DX-VV8H8YmCb958VjYyq-13" value="hat" style="rhombus;whiteSpace=wrap;html=1;" vertex="1" parent="1">
          <mxGeometry x="394" y="120" width="40" height="40" as="geometry" />
        </mxCell>
        <mxCell id="DX-VV8H8YmCb958VjYyq-32" value="" style="edgeStyle=orthogonalEdgeStyle;rounded=0;orthogonalLoop=1;jettySize=auto;html=1;" edge="1" parent="1" source="DX-VV8H8YmCb958VjYyq-21" target="DX-VV8H8YmCb958VjYyq-8">
          <mxGeometry relative="1" as="geometry" />
        </mxCell>
        <mxCell id="DX-VV8H8YmCb958VjYyq-84" value="" style="edgeStyle=orthogonalEdgeStyle;rounded=0;orthogonalLoop=1;jettySize=auto;html=1;" edge="1" parent="1" source="DX-VV8H8YmCb958VjYyq-21" target="DX-VV8H8YmCb958VjYyq-9">
          <mxGeometry relative="1" as="geometry" />
        </mxCell>
        <mxCell id="DX-VV8H8YmCb958VjYyq-21" value="verwalten" style="rhombus;whiteSpace=wrap;html=1;" vertex="1" parent="1">
          <mxGeometry x="300" y="190" width="40" height="40" as="geometry" />
        </mxCell>
        <mxCell id="DX-VV8H8YmCb958VjYyq-38" value="" style="edgeStyle=orthogonalEdgeStyle;rounded=0;orthogonalLoop=1;jettySize=auto;html=1;" edge="1" parent="1" source="DX-VV8H8YmCb958VjYyq-37" target="DX-VV8H8YmCb958VjYyq-8">
          <mxGeometry relative="1" as="geometry" />
        </mxCell>
        <mxCell id="DX-VV8H8YmCb958VjYyq-39" value="" style="edgeStyle=orthogonalEdgeStyle;rounded=0;orthogonalLoop=1;jettySize=auto;html=1;" edge="1" parent="1" source="DX-VV8H8YmCb958VjYyq-37" target="DX-VV8H8YmCb958VjYyq-3">
          <mxGeometry relative="1" as="geometry" />
        </mxCell>
        <mxCell id="DX-VV8H8YmCb958VjYyq-37" value="enthalten" style="rhombus;whiteSpace=wrap;html=1;" vertex="1" parent="1">
          <mxGeometry x="510" y="190" width="40" height="40" as="geometry" />
        </mxCell>
        <mxCell id="DX-VV8H8YmCb958VjYyq-44" value="" style="edgeStyle=orthogonalEdgeStyle;rounded=0;orthogonalLoop=1;jettySize=auto;html=1;" edge="1" parent="1" source="DX-VV8H8YmCb958VjYyq-42" target="DX-VV8H8YmCb958VjYyq-1">
          <mxGeometry relative="1" as="geometry" />
        </mxCell>
        <mxCell id="DX-VV8H8YmCb958VjYyq-42" value="besuchen" style="rhombus;whiteSpace=wrap;html=1;" vertex="1" parent="1">
          <mxGeometry x="394" y="270" width="56" height="80" as="geometry" />
        </mxCell>
        <mxCell id="DX-VV8H8YmCb958VjYyq-49" value="" style="endArrow=classic;html=1;rounded=0;exitX=0.5;exitY=0;exitDx=0;exitDy=0;entryX=0.5;entryY=1;entryDx=0;entryDy=0;" edge="1" parent="1" source="DX-VV8H8YmCb958VjYyq-42" target="DX-VV8H8YmCb958VjYyq-8">
          <mxGeometry width="50" height="50" relative="1" as="geometry">
            <mxPoint x="393.9999999999999" y="281.5799999999999" as="sourcePoint" />
            <mxPoint x="413.2400000000001" y="240.00000000000003" as="targetPoint" />
          </mxGeometry>
        </mxCell>
        <mxCell id="DX-VV8H8YmCb958VjYyq-51" value="" style="endArrow=classic;html=1;rounded=0;exitX=0;exitY=0.5;exitDx=0;exitDy=0;entryX=1.02;entryY=0.65;entryDx=0;entryDy=0;entryPerimeter=0;" edge="1" parent="1" source="DX-VV8H8YmCb958VjYyq-53" target="DX-VV8H8YmCb958VjYyq-1">
          <mxGeometry width="50" height="50" relative="1" as="geometry">
            <mxPoint x="470" y="270" as="sourcePoint" />
            <mxPoint x="550" y="420" as="targetPoint" />
          </mxGeometry>
        </mxCell>
        <mxCell id="DX-VV8H8YmCb958VjYyq-52" value="" style="endArrow=classic;html=1;rounded=0;exitX=0.5;exitY=0;exitDx=0;exitDy=0;entryX=0.645;entryY=1.03;entryDx=0;entryDy=0;entryPerimeter=0;" edge="1" parent="1" source="DX-VV8H8YmCb958VjYyq-53" target="DX-VV8H8YmCb958VjYyq-3">
          <mxGeometry width="50" height="50" relative="1" as="geometry">
            <mxPoint x="470" y="270" as="sourcePoint" />
            <mxPoint x="570" y="280" as="targetPoint" />
          </mxGeometry>
        </mxCell>
        <mxCell id="DX-VV8H8YmCb958VjYyq-53" value="hinzufÃ¼gen" style="rhombus;whiteSpace=wrap;html=1;" vertex="1" parent="1">
          <mxGeometry x="747" y="440" width="73" height="60" as="geometry" />
        </mxCell>
        <mxCell id="DX-VV8H8YmCb958VjYyq-56" value="hat" style="rhombus;whiteSpace=wrap;html=1;" vertex="1" parent="1">
          <mxGeometry x="300" y="280" width="40" height="40" as="geometry" />
        </mxCell>
        <mxCell id="DX-VV8H8YmCb958VjYyq-57" value="" style="endArrow=classic;html=1;rounded=0;exitX=0.5;exitY=1;exitDx=0;exitDy=0;entryX=1;entryY=0.5;entryDx=0;entryDy=0;" edge="1" parent="1" source="DX-VV8H8YmCb958VjYyq-56" target="DX-VV8H8YmCb958VjYyq-2">
          <mxGeometry width="50" height="50" relative="1" as="geometry">
            <mxPoint x="470" y="270" as="sourcePoint" />
            <mxPoint x="290" y="420" as="targetPoint" />
          </mxGeometry>
        </mxCell>
        <mxCell id="DX-VV8H8YmCb958VjYyq-58" value="" style="endArrow=classic;html=1;rounded=0;exitX=0.5;exitY=0;exitDx=0;exitDy=0;entryX=0;entryY=1;entryDx=0;entryDy=0;" edge="1" parent="1" source="DX-VV8H8YmCb958VjYyq-56" target="DX-VV8H8YmCb958VjYyq-8">
          <mxGeometry width="50" height="50" relative="1" as="geometry">
            <mxPoint x="470" y="270" as="sourcePoint" />
            <mxPoint x="520" y="220" as="targetPoint" />
          </mxGeometry>
        </mxCell>
        <mxCell id="DX-VV8H8YmCb958VjYyq-59" value="hat" style="rhombus;whiteSpace=wrap;html=1;" vertex="1" parent="1">
          <mxGeometry x="640" y="150" width="40" height="40" as="geometry" />
        </mxCell>
        <mxCell id="DX-VV8H8YmCb958VjYyq-60" value="" style="endArrow=classic;html=1;rounded=0;exitX=0;exitY=1;exitDx=0;exitDy=0;entryX=0.992;entryY=0.123;entryDx=0;entryDy=0;entryPerimeter=0;" edge="1" parent="1" source="DX-VV8H8YmCb958VjYyq-59" target="DX-VV8H8YmCb958VjYyq-8">
          <mxGeometry width="50" height="50" relative="1" as="geometry">
            <mxPoint x="470" y="270" as="sourcePoint" />
            <mxPoint x="520" y="220" as="targetPoint" />
          </mxGeometry>
        </mxCell>
        <mxCell id="DX-VV8H8YmCb958VjYyq-61" value="" style="endArrow=classic;html=1;rounded=0;exitX=1;exitY=0;exitDx=0;exitDy=0;entryX=0;entryY=0.5;entryDx=0;entryDy=0;" edge="1" parent="1" source="DX-VV8H8YmCb958VjYyq-59" target="DX-VV8H8YmCb958VjYyq-4">
          <mxGeometry width="50" height="50" relative="1" as="geometry">
            <mxPoint x="470" y="270" as="sourcePoint" />
            <mxPoint x="520" y="220" as="targetPoint" />
          </mxGeometry>
        </mxCell>
        <mxCell id="DX-VV8H8YmCb958VjYyq-64" value="schreiben" style="rhombus;whiteSpace=wrap;html=1;" vertex="1" parent="1">
          <mxGeometry x="540" y="370" width="60" height="50" as="geometry" />
        </mxCell>
        <mxCell id="DX-VV8H8YmCb958VjYyq-67" value="" style="endArrow=classic;html=1;rounded=0;exitX=0;exitY=0.5;exitDx=0;exitDy=0;entryX=1;entryY=0;entryDx=0;entryDy=0;" edge="1" parent="1" source="DX-VV8H8YmCb958VjYyq-64" target="DX-VV8H8YmCb958VjYyq-1">
          <mxGeometry width="50" height="50" relative="1" as="geometry">
            <mxPoint x="470" y="270" as="sourcePoint" />
            <mxPoint x="520" y="220" as="targetPoint" />
          </mxGeometry>
        </mxCell>
        <mxCell id="DX-VV8H8YmCb958VjYyq-76" value="" style="edgeStyle=orthogonalEdgeStyle;rounded=0;orthogonalLoop=1;jettySize=auto;html=1;" edge="1" parent="1" source="DX-VV8H8YmCb958VjYyq-70" target="DX-VV8H8YmCb958VjYyq-10">
          <mxGeometry relative="1" as="geometry" />
        </mxCell>
        <mxCell id="DX-VV8H8YmCb958VjYyq-70" value="erhalten" style="rhombus;whiteSpace=wrap;html=1;" vertex="1" parent="1">
          <mxGeometry x="480" y="270" width="40" height="40" as="geometry" />
        </mxCell>
        <mxCell id="DX-VV8H8YmCb958VjYyq-75" value="" style="endArrow=classic;html=1;rounded=0;exitX=1;exitY=0.5;exitDx=0;exitDy=0;entryX=0.438;entryY=0.963;entryDx=0;entryDy=0;entryPerimeter=0;" edge="1" parent="1" source="DX-VV8H8YmCb958VjYyq-64" target="DX-VV8H8YmCb958VjYyq-10">
          <mxGeometry width="50" height="50" relative="1" as="geometry">
            <mxPoint x="470" y="270" as="sourcePoint" />
            <mxPoint x="610" y="350" as="targetPoint" />
          </mxGeometry>
        </mxCell>
        <mxCell id="DX-VV8H8YmCb958VjYyq-77" value="" style="endArrow=classic;html=1;rounded=0;exitX=0.5;exitY=0;exitDx=0;exitDy=0;entryX=0.885;entryY=1.017;entryDx=0;entryDy=0;entryPerimeter=0;" edge="1" parent="1" source="DX-VV8H8YmCb958VjYyq-70" target="DX-VV8H8YmCb958VjYyq-8">
          <mxGeometry width="50" height="50" relative="1" as="geometry">
            <mxPoint x="470" y="270" as="sourcePoint" />
            <mxPoint x="490" y="230" as="targetPoint" />
          </mxGeometry>
        </mxCell>
        <mxCell id="DX-VV8H8YmCb958VjYyq-78" value="hat" style="rhombus;whiteSpace=wrap;html=1;" vertex="1" parent="1">
          <mxGeometry x="270" y="110" width="40" height="40" as="geometry" />
        </mxCell>
        <mxCell id="DX-VV8H8YmCb958VjYyq-79" value="" style="endArrow=classic;html=1;rounded=0;exitX=1;exitY=0.5;exitDx=0;exitDy=0;entryX=0;entryY=0;entryDx=0;entryDy=0;" edge="1" parent="1" source="DX-VV8H8YmCb958VjYyq-78" target="DX-VV8H8YmCb958VjYyq-8">
          <mxGeometry width="50" height="50" relative="1" as="geometry">
            <mxPoint x="470" y="270" as="sourcePoint" />
            <mxPoint x="520" y="220" as="targetPoint" />
          </mxGeometry>
        </mxCell>
        <mxCell id="DX-VV8H8YmCb958VjYyq-80" value="" style="endArrow=classic;html=1;rounded=0;exitX=0;exitY=0.5;exitDx=0;exitDy=0;entryX=1;entryY=1;entryDx=0;entryDy=0;" edge="1" parent="1" source="DX-VV8H8YmCb958VjYyq-78" target="DX-VV8H8YmCb958VjYyq-12">
          <mxGeometry width="50" height="50" relative="1" as="geometry">
            <mxPoint x="470" y="270" as="sourcePoint" />
            <mxPoint x="520" y="220" as="targetPoint" />
          </mxGeometry>
        </mxCell>
        <mxCell id="DX-VV8H8YmCb958VjYyq-90" value="" style="edgeStyle=orthogonalEdgeStyle;rounded=0;orthogonalLoop=1;jettySize=auto;html=1;" edge="1" parent="1" source="DX-VV8H8YmCb958VjYyq-85" target="DX-VV8H8YmCb958VjYyq-2">
          <mxGeometry relative="1" as="geometry" />
        </mxCell>
        <mxCell id="DX-VV8H8YmCb958VjYyq-85" value="hat" style="rhombus;whiteSpace=wrap;html=1;" vertex="1" parent="1">
          <mxGeometry x="100" y="350" width="40" height="40" as="geometry" />
        </mxCell>
        <mxCell id="DX-VV8H8YmCb958VjYyq-87" value="" style="edgeStyle=orthogonalEdgeStyle;rounded=0;orthogonalLoop=1;jettySize=auto;html=1;" edge="1" parent="1" source="DX-VV8H8YmCb958VjYyq-86" target="DX-VV8H8YmCb958VjYyq-11">
          <mxGeometry relative="1" as="geometry" />
        </mxCell>
        <mxCell id="DX-VV8H8YmCb958VjYyq-88" value="" style="edgeStyle=orthogonalEdgeStyle;rounded=0;orthogonalLoop=1;jettySize=auto;html=1;" edge="1" parent="1" source="DX-VV8H8YmCb958VjYyq-86" target="DX-VV8H8YmCb958VjYyq-2">
          <mxGeometry relative="1" as="geometry" />
        </mxCell>
        <mxCell id="DX-VV8H8YmCb958VjYyq-86" value="beziehen" style="rhombus;whiteSpace=wrap;html=1;" vertex="1" parent="1">
          <mxGeometry x="200" y="430" width="40" height="40" as="geometry" />
        </mxCell>
        <mxCell id="DX-VV8H8YmCb958VjYyq-95" value="" style="edgeStyle=orthogonalEdgeStyle;rounded=0;orthogonalLoop=1;jettySize=auto;html=1;" edge="1" parent="1" source="DX-VV8H8YmCb958VjYyq-92" target="DX-VV8H8YmCb958VjYyq-5">
          <mxGeometry relative="1" as="geometry" />
        </mxCell>
        <mxCell id="DX-VV8H8YmCb958VjYyq-96" value="" style="edgeStyle=orthogonalEdgeStyle;rounded=0;orthogonalLoop=1;jettySize=auto;html=1;" edge="1" parent="1" source="DX-VV8H8YmCb958VjYyq-92" target="DX-VV8H8YmCb958VjYyq-7">
          <mxGeometry relative="1" as="geometry" />
        </mxCell>
        <mxCell id="DX-VV8H8YmCb958VjYyq-92" value="rabattieren" style="rhombus;whiteSpace=wrap;html=1;" vertex="1" parent="1">
          <mxGeometry x="474" y="40" width="40" height="40" as="geometry" />
        </mxCell>
        <mxCell id="DX-VV8H8YmCb958VjYyq-98" style="edgeStyle=orthogonalEdgeStyle;rounded=0;orthogonalLoop=1;jettySize=auto;html=1;entryX=0.75;entryY=0;entryDx=0;entryDy=0;" edge="1" parent="1" source="DX-VV8H8YmCb958VjYyq-93" target="DX-VV8H8YmCb958VjYyq-8">
          <mxGeometry relative="1" as="geometry" />
        </mxCell>
        <mxCell id="DX-VV8H8YmCb958VjYyq-99" style="edgeStyle=orthogonalEdgeStyle;rounded=0;orthogonalLoop=1;jettySize=auto;html=1;" edge="1" parent="1" source="DX-VV8H8YmCb958VjYyq-93">
          <mxGeometry relative="1" as="geometry">
            <mxPoint x="590" y="100" as="targetPoint" />
          </mxGeometry>
        </mxCell>
        <mxCell id="DX-VV8H8YmCb958VjYyq-93" value="anbieten" style="rhombus;whiteSpace=wrap;html=1;" vertex="1" parent="1">
          <mxGeometry x="520" y="110" width="40" height="40" as="geometry" />
        </mxCell>
        <mxCell id="DX-VV8H8YmCb958VjYyq-101" value="" style="edgeStyle=orthogonalEdgeStyle;rounded=0;orthogonalLoop=1;jettySize=auto;html=1;entryX=0.5;entryY=1;entryDx=0;entryDy=0;" edge="1" parent="1" source="DX-VV8H8YmCb958VjYyq-100" target="DX-VV8H8YmCb958VjYyq-1">
          <mxGeometry relative="1" as="geometry" />
        </mxCell>
        <mxCell id="DX-VV8H8YmCb958VjYyq-102" value="" style="edgeStyle=orthogonalEdgeStyle;rounded=0;orthogonalLoop=1;jettySize=auto;html=1;" edge="1" parent="1" source="DX-VV8H8YmCb958VjYyq-100" target="DX-VV8H8YmCb958VjYyq-11">
          <mxGeometry relative="1" as="geometry" />
        </mxCell>
        <mxCell id="DX-VV8H8YmCb958VjYyq-100" value="erstellen" style="rhombus;whiteSpace=wrap;html=1;" vertex="1" parent="1">
          <mxGeometry x="394" y="520" width="46" height="80" as="geometry" />
        </mxCell>
        <mxCell id="DX-VV8H8YmCb958VjYyq-104" style="edgeStyle=orthogonalEdgeStyle;rounded=0;orthogonalLoop=1;jettySize=auto;html=1;entryX=0;entryY=0.5;entryDx=0;entryDy=0;" edge="1" parent="1" source="DX-VV8H8YmCb958VjYyq-103" target="DX-VV8H8YmCb958VjYyq-1">
          <mxGeometry relative="1" as="geometry">
            <mxPoint x="350" y="460" as="targetPoint" />
          </mxGeometry>
        </mxCell>
        <mxCell id="DX-VV8H8YmCb958VjYyq-105" style="edgeStyle=orthogonalEdgeStyle;rounded=0;orthogonalLoop=1;jettySize=auto;html=1;entryX=1;entryY=1;entryDx=0;entryDy=0;" edge="1" parent="1" source="DX-VV8H8YmCb958VjYyq-103" target="DX-VV8H8YmCb958VjYyq-2">
          <mxGeometry relative="1" as="geometry" />
        </mxCell>
        <mxCell id="DX-VV8H8YmCb958VjYyq-103" value="tÃ¤tigen" style="rhombus;whiteSpace=wrap;html=1;" vertex="1" parent="1">
          <mxGeometry x="280" y="410" width="40" height="40" as="geometry" />
        </mxCell>
        <mxCell id="DX-VV8H8YmCb958VjYyq-107" style="edgeStyle=orthogonalEdgeStyle;rounded=0;orthogonalLoop=1;jettySize=auto;html=1;entryX=0.5;entryY=0;entryDx=0;entryDy=0;" edge="1" parent="1" source="DX-VV8H8YmCb958VjYyq-106" target="DX-VV8H8YmCb958VjYyq-5">
          <mxGeometry relative="1" as="geometry">
            <Array as="points">
              <mxPoint x="70" y="10" />
              <mxPoint x="380" y="10" />
            </Array>
          </mxGeometry>
        </mxCell>
        <mxCell id="DX-VV8H8YmCb958VjYyq-108" style="edgeStyle=orthogonalEdgeStyle;rounded=0;orthogonalLoop=1;jettySize=auto;html=1;exitX=1;exitY=0.5;exitDx=0;exitDy=0;entryX=0.5;entryY=0;entryDx=0;entryDy=0;" edge="1" parent="1" source="DX-VV8H8YmCb958VjYyq-106" target="DX-VV8H8YmCb958VjYyq-2">
          <mxGeometry relative="1" as="geometry" />
        </mxCell>
        <mxCell id="DX-VV8H8YmCb958VjYyq-106" value="buchen" style="rhombus;whiteSpace=wrap;html=1;" vertex="1" parent="1">
          <mxGeometry x="50" y="260" width="40" height="40" as="geometry" />
        </mxCell>
      </root>
    </mxGraphModel>
  </diagram>
</mxfile>
